<svg width="34" height="34" viewBox="0 0 34 34" fill="none" xmlns="http://www.w3.org/2000/svg">
<path d="M9.91667 12.75H9.93083M9.91667 18.4167H9.93083M9.91667 24.0833H9.93083M21.25 9.91667H21.2642M21.25 15.5833H21.2642M21.25 21.25H21.2642M25.5 19.8333H25.5142M25.5 25.5H25.5142M12.75 7.08333H5.66667C4.88427 7.08333 4.25 7.7176 4.25 8.5V28.3333C4.25 29.1158 4.88427 29.75 5.66667 29.75H12.75M17 6.51667V27.4833C17 28.2768 17 28.6735 17.1544 28.9765C17.2903 29.2431 17.5069 29.4597 17.7735 29.5956C18.0765 29.75 18.4732 29.75 19.2667 29.75H27.4833C28.2768 29.75 28.6735 29.75 28.9765 29.5956C29.2431 29.4597 29.4597 29.2431 29.5956 28.9765C29.75 28.6735 29.75 28.2768 29.75 27.4833V16.2917C29.75 15.6316 29.75 15.3016 29.6422 15.0412C29.4984 14.6941 29.2226 14.4183 28.8755 14.2745C28.6151 14.1667 28.285 14.1667 27.625 14.1667C26.965 14.1667 26.6349 14.1667 26.3745 14.0588C26.0274 13.9151 25.7516 13.6393 25.6078 13.2921C25.5 13.0318 25.5 12.7017 25.5 12.0417V6.51667C25.5 5.72326 25.5 5.32655 25.3456 5.02351C25.2097 4.75695 24.9931 4.54023 24.7265 4.4044C24.4235 4.25 24.0268 4.25 23.2333 4.25H19.2667C18.4732 4.25 18.0765 4.25 17.7735 4.4044C17.5069 4.54023 17.2903 4.75695 17.1544 5.02351C17 5.32655 17 5.72326 17 6.51667Z" stroke="#9EC5BD" stroke-width="2.5" stroke-linecap="round" stroke-linejoin="round"/>
</svg>
