<svg width="28" height="28" viewBox="0 0 28 28" fill="none" xmlns="http://www.w3.org/2000/svg">
<path d="M5.3375 8.31252C5.3375 7.98763 5.46656 7.67605 5.69629 7.44632C5.92603 7.21659 6.23761 7.08752 6.5625 7.08752H12.6875C12.8484 7.08752 13.0077 7.11921 13.1563 7.18077C13.3049 7.24233 13.44 7.33257 13.5537 7.44632C13.6675 7.56007 13.7577 7.69511 13.8193 7.84374C13.8808 7.99236 13.9125 8.15165 13.9125 8.31252C13.9125 8.47339 13.8808 8.63269 13.8193 8.78131C13.7577 8.92994 13.6675 9.06498 13.5537 9.17873C13.44 9.29248 13.3049 9.38271 13.1563 9.44428C13.0077 9.50584 12.8484 9.53752 12.6875 9.53752H6.5625C6.23761 9.53752 5.92603 9.40846 5.69629 9.17873C5.46656 8.949 5.3375 8.63741 5.3375 8.31252ZM6.5625 12.3375C6.23761 12.3375 5.92603 12.4666 5.69629 12.6963C5.46656 12.9261 5.3375 13.2376 5.3375 13.5625C5.3375 13.8874 5.46656 14.199 5.69629 14.4287C5.92603 14.6585 6.23761 14.7875 6.5625 14.7875H10.9375C11.2624 14.7875 11.574 14.6585 11.8037 14.4287C12.0334 14.199 12.1625 13.8874 12.1625 13.5625C12.1625 13.2376 12.0334 12.9261 11.8037 12.6963C11.574 12.4666 11.2624 12.3375 10.9375 12.3375H6.5625Z" fill="#9EC5BD"/>
<path fill-rule="evenodd" clip-rule="evenodd" d="M0 5.6875C0 4.64321 0.414843 3.64169 1.15327 2.90327C1.89169 2.16484 2.89321 1.75 3.9375 1.75H15.3125C16.8577 1.75 18.1965 2.6425 18.8405 3.9375H20.5625C21.784 3.9375 22.8375 4.65325 23.331 5.6875H24.9375C26.628 5.6875 28 7.0595 28 8.75V19.25C28 20.0622 27.6773 20.8412 27.103 21.4155C26.5287 21.9898 25.7497 22.3125 24.9375 22.3125H23.331C22.8393 23.3468 21.784 24.0625 20.5625 24.0625H18.8405C18.5145 24.7195 18.0115 25.2724 17.3882 25.6589C16.7648 26.0454 16.0459 26.2501 15.3125 26.25H3.9375C2.89321 26.25 1.89169 25.8352 1.15327 25.0967C0.414843 24.3583 0 23.3568 0 22.3125L0 5.6875ZM23.625 19.6875H24.9375C25.0535 19.6875 25.1648 19.6414 25.2469 19.5594C25.3289 19.4773 25.375 19.366 25.375 19.25V8.75C25.375 8.63397 25.3289 8.52269 25.2469 8.44064C25.1648 8.35859 25.0535 8.3125 24.9375 8.3125H23.625V19.6875ZM19.25 21.4375V6.5625H20.5625C20.6785 6.5625 20.7898 6.60859 20.8719 6.69064C20.9539 6.77269 21 6.88397 21 7V21C21 21.116 20.9539 21.2273 20.8719 21.3094C20.7898 21.3914 20.6785 21.4375 20.5625 21.4375H19.25ZM3.9375 4.375C3.5894 4.375 3.25556 4.51328 3.00942 4.75942C2.76328 5.00556 2.625 5.3394 2.625 5.6875V22.3125C2.625 23.037 3.213 23.625 3.9375 23.625H15.3125C15.6606 23.625 15.9944 23.4867 16.2406 23.2406C16.4867 22.9944 16.625 22.6606 16.625 22.3125V5.6875C16.625 5.3394 16.4867 5.00556 16.2406 4.75942C15.9944 4.51328 15.6606 4.375 15.3125 4.375H3.9375Z" fill="#9EC5BD"/>
</svg>
