<svg width="52" height="52" viewBox="0 0 52 52" fill="none" xmlns="http://www.w3.org/2000/svg">
<path d="M18.9408 19.1824L19.0399 19.4119C19.0561 19.4049 19.0695 19.3975 19.0752 19.3942C19.8276 19.0695 20.6271 18.9042 21.4539 18.9042H27.3063C27.8913 18.9042 28.3663 18.4306 28.3663 17.8455C28.3663 17.2604 27.8913 16.7868 27.3063 16.7868H21.4539C20.8495 16.7868 20.2548 16.8523 19.6747 16.9821V10.4443C19.6747 6.96216 22.5117 4.12831 25.9993 4.12831C29.4877 4.12831 32.3256 6.96223 32.3256 10.4443V16.9823C31.7454 16.8524 31.1508 16.7869 30.5464 16.7869C29.9613 16.7869 29.4864 17.2605 29.4864 17.8456C29.4864 18.4307 29.9613 18.9043 30.5464 18.9043C31.3732 18.9043 32.1729 19.0696 32.9255 19.3944C32.9308 19.3974 32.9432 19.4044 32.9581 19.411L32.9591 19.4114C35.1501 20.3734 36.5649 22.5331 36.5649 24.9129C36.5649 27.5539 34.7901 29.9245 32.2498 30.6747L32.2497 30.6747C32.2396 30.6777 32.2314 30.6807 32.2255 30.683C32.2244 30.6834 32.2233 30.6839 32.2223 30.6843C31.6803 30.8414 31.1166 30.9215 30.5464 30.9215H27.0602V27.6475H30.5465C32.2992 27.6475 33.7255 26.2241 33.7255 24.4731V22.3575C33.7255 21.7724 33.2505 21.2988 32.6655 21.2988C32.0804 21.2988 31.6055 21.7724 31.6055 22.3575V24.4731C31.6055 25.0553 31.1306 25.53 30.5465 25.53H21.4539C20.8698 25.53 20.3948 25.0553 20.3948 24.4731V22.3575C20.3948 21.7724 19.9198 21.2988 19.3348 21.2988C18.7498 21.2988 18.2748 21.7724 18.2748 22.3575V24.4731C18.2748 26.2241 19.7011 27.6475 21.4539 27.6475H24.94V30.9215H21.4539C20.8837 30.9215 20.3202 30.8415 19.7783 30.6844C19.7774 30.684 19.7765 30.6837 19.7755 30.6833C19.7696 30.681 19.7611 30.6778 19.7506 30.6747L19.7505 30.6747C17.2102 29.9245 15.4354 27.5539 15.4354 24.9129C15.4354 22.5333 16.8503 20.3734 19.0413 19.4113L18.9408 19.1824ZM18.9408 19.1824C16.6595 20.1841 15.1854 22.4334 15.1854 24.9129C15.1854 27.6651 17.0335 30.133 19.6797 30.9144L19.6747 17.2385C20.254 17.1045 20.8487 17.0368 21.4539 17.0368H27.3063C27.7537 17.0368 28.1163 17.3989 28.1163 17.8455C28.1163 18.2921 27.7537 18.6542 27.3063 18.6542H21.4539C20.5894 18.6542 19.7525 18.8279 18.9657 19.1692C18.962 19.171 18.9585 19.173 18.955 19.175C18.9504 19.1776 18.9458 19.1802 18.9408 19.1824ZM21.0096 49.9357L21.0097 49.9357L23.9137 48.9797C24.3676 48.8303 24.6655 48.3958 24.6405 47.9187L24.3908 47.9318L24.6405 47.9187L24.5698 46.576H27.4302L27.3596 47.9187L27.6093 47.9318L27.3596 47.9187C27.3346 48.3958 27.6325 48.8303 28.0863 48.9797L30.9904 49.9357L30.9904 49.9357C31.1002 49.9718 31.212 49.9891 31.3224 49.9891C31.7669 49.9891 32.1817 49.7075 32.3288 49.2619C32.5123 48.7062 32.2098 48.1077 31.6541 47.9247L31.654 47.9247L29.5192 47.2219L29.5532 46.576H32.5502C33.1353 46.576 33.6102 46.1023 33.6102 45.5173V32.4389C36.6341 31.2052 38.6848 28.2182 38.6848 24.9129C38.6849 21.9283 37.0417 19.202 34.4455 17.7842V10.4443C34.4455 5.79348 30.6564 2.01086 25.9993 2.01086C21.3431 2.01086 17.5546 5.79353 17.5546 10.4443V17.7842C14.9584 19.202 13.3152 21.9285 13.3152 24.913C13.3152 28.2182 15.3659 31.2052 18.3897 32.4389V45.5173C18.3897 46.1023 18.8647 46.576 19.4497 46.576H22.4469L22.4808 47.2219L20.3461 47.9247C19.7902 48.1076 19.4877 48.7062 19.6712 49.2619L19.9086 49.1835L19.6712 49.2619C19.8184 49.7076 20.2332 49.9891 20.6777 49.9891C20.788 49.9891 20.8999 49.9718 21.0096 49.9357ZM20.5098 44.4585V32.9837C20.8221 33.0201 21.1372 33.0389 21.4539 33.0389H30.5464C30.863 33.0389 31.1781 33.0202 31.4903 32.9838V44.4585H20.5098Z" fill="#9EC5BD" stroke="#9EC5BD" stroke-width="0.5"/>
</svg>
