<svg width="2167" height="159" viewBox="0 0 2167 159" fill="none" xmlns="http://www.w3.org/2000/svg">
<g opacity="0.1">
<line x1="767.766" y1="61.0277" x2="950.766" y2="17.0277" stroke="black" stroke-width="2"/>
<line x1="768.292" y1="61.0435" x2="1040.29" y2="144.044" stroke="black" stroke-width="2"/>
<line x1="951.819" y1="17.4261" x2="1040.82" y2="144.426" stroke="black" stroke-width="2"/>
<line x1="1039.06" y1="144.671" x2="1085.06" y2="12.6709" stroke="black" stroke-width="2"/>
<line x1="1039.88" y1="144.007" x2="1147.88" y2="131.007" stroke="black" stroke-width="2"/>
<line x1="1086.89" y1="12.5379" x2="1148.89" y2="131.538" stroke="black" stroke-width="2"/>
<line x1="1147.33" y1="131.256" x2="1206.33" y2="78.2561" stroke="black" stroke-width="2"/>
<line x1="1206.24" y1="79.6487" x2="1154.24" y2="18.6487" stroke="black" stroke-width="2"/>
<line x1="1086.07" y1="12.0026" x2="1155.07" y2="17.0026" stroke="black" stroke-width="2"/>
<line x1="768.451" y1="62.8926" x2="671.451" y2="111.893" stroke="black" stroke-width="2"/>
<line x1="767.58" y1="62.9077" x2="661.58" y2="13.9077" stroke="black" stroke-width="2"/>
<line x1="662.996" y1="12.9085" x2="671.996" y2="110.909" stroke="black" stroke-width="2"/>
<line x1="670.837" y1="111.987" x2="549.837" y2="91.9866" stroke="black" stroke-width="2"/>
<line x1="549.429" y1="90.1794" x2="661.429" y2="12.1794" stroke="black" stroke-width="2"/>
<line x1="549.559" y1="91.8974" x2="490.559" y2="62.8974" stroke="black" stroke-width="2"/>
<line x1="490.725" y1="61.0387" x2="661.725" y2="12.0387" stroke="black" stroke-width="2"/>
<line x1="491.38" y1="62.9251" x2="396.38" y2="101.925" stroke="black" stroke-width="2"/>
<line x1="490.55" y1="62.8928" x2="381.549" y2="7.89278" stroke="black" stroke-width="2"/>
<line x1="1207.19" y1="76.0174" x2="1281.19" y2="90.0174" stroke="black" stroke-width="2"/>
<line x1="1280.26" y1="90.3302" x2="1326.26" y2="39.3302" stroke="black" stroke-width="2"/>
<line x1="1327.9" y1="39.5573" x2="1366.9" y2="118.557" stroke="black" stroke-width="2"/>
<line x1="1365.5" y1="118.133" x2="1473.5" y2="56.1327" stroke="black" stroke-width="2"/>
<line x1="1474.85" y1="56.469" x2="1521.85" y2="131.469" stroke="black" stroke-width="2"/>
<line x1="1520.53" y1="131.119" x2="1602.53" y2="87.1188" stroke="black" stroke-width="2"/>
<line x1="395.011" y1="101.147" x2="381.011" y2="7.14731" stroke="black" stroke-width="2"/>
<line x1="1520.92" y1="132.997" x2="1365.92" y2="119.996" stroke="black" stroke-width="2"/>
<line x1="1281.31" y1="90.0502" x2="1366.31" y2="118.05" stroke="black" stroke-width="2"/>
<line x1="1155.13" y1="17.0081" x2="1327.13" y2="39.0081" stroke="black" stroke-width="2"/>
<line x1="1474.25" y1="56.033" x2="1603.25" y2="90.033" stroke="black" stroke-width="2"/>
<line x1="1603.77" y1="90.3598" x2="1648.77" y2="144.36" stroke="black" stroke-width="2"/>
<line x1="1647.63" y1="144.069" x2="1797.63" y2="85.0694" stroke="black" stroke-width="2"/>
<line x1="1602.99" y1="87.0001" x2="1797.99" y2="85.0001" stroke="black" stroke-width="2"/>
<line x1="1798.4" y1="86.0827" x2="1957.4" y2="155.083" stroke="black" stroke-width="2"/>
<line x1="1956.13" y1="155.502" x2="1995.13" y2="87.5025" stroke="black" stroke-width="2"/>
<line x1="1996.79" y1="86.3908" x2="2049.79" y2="155.391" stroke="black" stroke-width="2"/>
<line x1="1957" y1="155" x2="2049" y2="155" stroke="black" stroke-width="2"/>
<line x1="1798.01" y1="85.0001" x2="1996.01" y2="87.0001" stroke="black" stroke-width="2"/>
<line x1="395.792" y1="101.978" x2="226.792" y2="65.9781" stroke="black" stroke-width="2"/>
<line x1="382.35" y1="7.93658" x2="227.35" y2="65.9366" stroke="black" stroke-width="2"/>
<line x1="227.595" y1="65.8036" x2="173.595" y2="105.804" stroke="black" stroke-width="2"/>
<line x1="226.596" y1="65.9148" x2="115.596" y2="16.9148" stroke="black" stroke-width="2"/>
<line x1="171.154" y1="105.533" x2="115.154" y2="16.5326" stroke="black" stroke-width="2"/>
<line x1="116.457" y1="16.8895" x2="7.45698" y2="72.8895" stroke="black" stroke-width="2"/>
<line x1="171.804" y1="105.981" x2="6.80389" y2="72.9806" stroke="black" stroke-width="2"/>
<line x1="2048.66" y1="155.059" x2="2162.66" y2="114.059" stroke="black" stroke-width="2"/>
<line x1="1996.17" y1="85.0147" x2="2163.17" y2="114.015" stroke="black" stroke-width="2"/>
<line x1="950.963" y1="17.0007" x2="1085.96" y2="12.0007" stroke="black" stroke-width="2"/>
<line x1="1324.11" y1="39.0064" x2="1474.11" y2="56.0064" stroke="black" stroke-width="2"/>
<line x1="1647.9" y1="145.995" x2="1520.9" y2="132.995" stroke="black" stroke-width="2"/>
<line x1="1648.04" y1="144.001" x2="1957.04" y2="155.001" stroke="black" stroke-width="2"/>
<line x1="171.982" y1="104" x2="395.982" y2="100" stroke="black" stroke-width="2"/>
<line x1="395.929" y1="101.003" x2="549.929" y2="90.0025" stroke="black" stroke-width="2"/>
<line x1="115.966" y1="15.0006" x2="381.966" y2="6.00057" stroke="black" stroke-width="2"/>
<line x1="382.018" y1="6.00016" x2="660.018" y2="11.0002" stroke="black" stroke-width="2"/>
<line x1="671.092" y1="110.004" x2="1040.09" y2="144.004" stroke="black" stroke-width="2"/>
<line x1="660.017" y1="12.0001" x2="951.017" y2="17.0001" stroke="black" stroke-width="2"/>
<line x1="1147.94" y1="131.002" x2="1365.94" y2="117.002" stroke="black" stroke-width="2"/>
<circle cx="172" cy="105" r="7" fill="black"/>
<circle cx="7" cy="72" r="7" fill="black"/>
<circle cx="116" cy="16" r="4" fill="black"/>
<circle cx="227" cy="65" r="4" fill="black"/>
<circle cx="396" cy="102" r="4" fill="black"/>
<circle cx="489" cy="62" r="4" fill="black"/>
<circle cx="660" cy="13" r="4" fill="black"/>
<circle cx="671" cy="111" r="4" fill="black"/>
<circle cx="951" cy="18" r="4" fill="black"/>
<circle cx="1474" cy="57" r="4" fill="black"/>
<circle cx="1648" cy="145" r="4" fill="black"/>
<circle cx="1798" cy="86" r="4" fill="black"/>
<circle cx="2163" cy="115" r="4" fill="black"/>
<circle cx="1040" cy="145" r="4" fill="black"/>
<circle cx="1086" cy="13" r="4" fill="black"/>
<circle cx="1155" cy="18" r="3" fill="black"/>
<circle cx="1148" cy="132" r="3" fill="black"/>
<circle cx="1281" cy="91" r="3" fill="black"/>
<circle cx="1327" cy="40" r="3" fill="black"/>
<circle cx="1521" cy="132" r="3" fill="black"/>
<circle cx="1957" cy="156" r="3" fill="black"/>
<circle cx="2049" cy="156" r="3" fill="black"/>
<circle cx="382" cy="7" r="7" fill="black"/>
<circle cx="550" cy="90" r="7" fill="black"/>
<circle cx="768" cy="63" r="7" fill="black"/>
<circle cx="1207" cy="77" r="7" fill="black"/>
<circle cx="1364" cy="119" r="7" fill="black"/>
<circle cx="1601" cy="88" r="7" fill="black"/>
<circle cx="1996" cy="86" r="7" fill="black"/>
</g>
</svg>
