<svg width="46" height="46" viewBox="0 0 46 46" fill="none" xmlns="http://www.w3.org/2000/svg">
<path d="M41.3339 34.1103L41.4605 34.2782L41.6351 34.3955L44.0911 36.0448L44.328 38.5731L42.7581 39.5114L42.2521 39.8139L42.1636 40.3968L41.8676 42.3463L41.3602 42.4532L36.8858 42.0967L32.6568 41.4458L31.9885 39.1504L31.8424 38.6486L31.3825 38.4001L29.6221 37.449L29.0306 37.1294L28.4379 37.4467L24.8879 39.3476L22.7327 38.9113L17.7442 35.9276L14.1411 29.3968L13.7122 28.6194L12.8369 28.7684L9.98935 29.2532L8.45429 27.125L8.38242 24.3132L8.36826 23.7592L7.94817 23.3977L5.04728 20.9013L4.13777 19.3691L4.22604 16.7703L5.07245 15.8355L5.69173 15.1515L5.22059 14.3582L2.64136 10.0153L1.78087 3.93084L2.40396 4.91963L2.69107 5.37526L3.21941 5.47956L5.53073 5.93584L6.04956 6.03827L6.48436 5.73723L8.30989 4.47333L10.3333 9.1328L10.5153 9.55198L10.9248 9.75491L17.2477 12.8884L17.6079 13.0669L18.0047 13.002L22.1581 12.3219L22.9266 12.196L23.1524 11.4509L23.4122 10.5937L24.7244 10.2371L25.0939 10.1367L25.3438 9.84661L26.5061 8.49712L28.7105 7.91881L37.9776 11.6405L38.5141 13.7809L37.0863 17.8113L36.9526 18.1888L37.0631 18.5738L39.2066 26.0371L39.3029 26.3726L39.5591 26.6096L40.5322 27.5099L39.034 29.6049L38.5001 30.3516L39.0527 31.0846L41.3339 34.1103Z" stroke="#9EC5BD" stroke-width="2.5"/>
</svg>
