<svg width="32" height="32" viewBox="0 0 32 32" fill="none" xmlns="http://www.w3.org/2000/svg">
<g clip-path="url(#clip0_168_93)">
<path d="M26.6667 2.66669H12.4444V7.11113H14.2222V4.44446H26.6667C27.2 4.44446 27.5555 4.80002 27.5555 5.33335V15.1111C27.5555 15.6445 27.2 16 26.6667 16H15.1111V22.2222H10.4L7.1111 24.8V22.2222H4.44444C3.9111 22.2222 3.55555 21.8667 3.55555 21.3334V11.5556C3.55555 11.0222 3.9111 10.6667 4.44444 10.6667H16V8.88891H4.44444C2.93333 8.88891 1.77777 10.0445 1.77777 11.5556V21.3334C1.77777 22.8445 2.93333 24 4.44444 24H5.33333V28.5334L10.9333 24H16.8889V17.7778H26.6667C28.1778 17.7778 29.3333 16.6222 29.3333 15.1111V5.33335C29.3333 3.82224 28.1778 2.66669 26.6667 2.66669Z" fill="#9EC5BD"/>
<path d="M5.51111 20.3556H7.64444L8.17778 18.9333H10.9333L11.4667 20.3556H13.6L10.5778 12.4445H8.44444L5.51111 20.3556ZM9.51111 14.6667L10.4 17.4222H8.62222L9.51111 14.6667Z" fill="#9EC5BD"/>
<path d="M17.7778 15.1111C18.7555 15.1111 20.0889 14.8444 21.3333 14.2222C22.5778 14.8444 24 15.1111 24.8889 15.1111V13.3333C24.8889 13.3333 24 13.3333 23.0222 12.9778C24.0889 11.9111 24.8889 10.3111 24.8889 7.99998V7.11109H22.2222V5.33331H20.4444V7.11109H17.7778V8.88887H23.0222C22.8444 10.4889 22.1333 11.4666 21.3333 12.0889C20.8 11.6444 20.2667 11.0222 19.9111 10.2222H18.0444C18.4 11.3778 18.9333 12.2666 19.6444 12.9778C18.7555 13.3333 17.9555 13.3333 17.7778 13.3333V15.1111Z" fill="#9EC5BD"/>
</g>
<defs>
<clipPath id="clip0_168_93">
<rect width="32" height="32" fill="white"/>
</clipPath>
</defs>
</svg>
