<svg width="36" height="36" viewBox="0 0 36 36" fill="none" xmlns="http://www.w3.org/2000/svg">
<g clip-path="url(#clip0_168_104)">
<path d="M13.4914 0C12.7852 0.00282291 12.2135 0.574558 12.2107 1.28069V7.7168C12.2107 9.43275 14.7846 9.43275 14.7846 7.7168V2.57143H32.7771V33.4286H14.7846V29.5739C14.7846 27.858 12.2107 27.858 12.2107 29.5739V34.7193C12.2135 35.4254 12.7852 35.9972 13.4914 36H34.0703C34.7765 35.9972 35.3482 35.4254 35.351 34.7193V1.28069C35.3482 0.574555 34.7765 0.00281867 34.0703 0H13.4914ZM1.78937 10.2882C1.13167 10.3541 0.631078 10.9079 0.631723 11.5689V25.7118C0.629023 26.4258 1.20848 27.0052 1.92246 27.0025H18.6367C19.3468 26.9997 19.9201 26.4218 19.9174 25.7118V23.9364L25.7735 26.8594C26.6274 27.2862 27.6323 26.6665 27.6342 25.7118V11.5689C27.6317 10.8479 27.0367 10.27 26.3159 10.2882L19.9174 13.3443V11.5689C19.9146 10.8628 19.3429 10.291 18.6367 10.2882H1.78937ZM3.20315 12.8597H17.346V24.4311H3.20315V12.8597ZM25.0628 13.6482V23.6325L19.9174 21.0636V16.2246L25.0628 13.6482ZM5.7796 14.1429C5.06953 14.1429 4.49391 14.7185 4.49389 15.4286C4.49391 16.1386 5.06953 16.7143 5.7796 16.7143C6.48967 16.7143 7.06529 16.1386 7.06532 15.4286C7.06529 14.7185 6.48967 14.1429 5.7796 14.1429Z" fill="#9EC5BD"/>
</g>
<defs>
<clipPath id="clip0_168_104">
<rect width="36" height="36" fill="white"/>
</clipPath>
</defs>
</svg>
