<svg width="40" height="40" viewBox="0 0 40 40" fill="none" xmlns="http://www.w3.org/2000/svg">
<g clip-path="url(#clip0_168_116)">
<path d="M22.1667 5.00002H22.5C29.25 5.00002 35 9.58335 35 15C35 20.4167 33.6667 24.1667 23.3333 24.1667C20.1667 24.1667 18.5 26 18 27.75C17.7357 28.691 17.7792 29.6918 18.124 30.6063C18.4688 31.5208 19.0969 32.3011 19.9167 32.8334C20.75 33.3334 20.75 33.9167 20.6667 34.25C20.6076 34.4851 20.4653 34.6907 20.266 34.8287C20.0667 34.9666 19.8241 35.0275 19.5833 35C9.5 35 5 27.5 5 20C5 12.5 12.6667 5.00002 22.0833 5.00002H22.1667ZM22.0833 1.66669C10.8333 1.66669 1.66666 9.83335 1.66666 20C1.66666 30.1667 8.33333 38.3334 19.5833 38.3334C24.1667 38.3334 25.8333 32.5 21.6667 30C20.9167 29.5 20.8333 27.5 23.3333 27.5C30.8333 27.5 38.3333 25 38.3333 15C38.3333 7.50002 30.8333 1.66669 22.5 1.66669H22.0833Z" fill="#9EC4BD"/>
<path d="M17.5 8.33334C17.0055 8.33334 16.5222 8.47996 16.1111 8.75466C15.6999 9.02937 15.3795 9.41981 15.1903 9.87663C15.0011 10.3334 14.9516 10.8361 15.048 11.3211C15.1445 11.806 15.3826 12.2515 15.7322 12.6011C16.0819 12.9507 16.5273 13.1888 17.0123 13.2853C17.4972 13.3818 17.9999 13.3323 18.4567 13.143C18.9135 12.9538 19.304 12.6334 19.5787 12.2223C19.8534 11.8111 20 11.3278 20 10.8333C20.0116 10.5019 19.9549 10.1716 19.8334 9.86303C19.7119 9.55445 19.5282 9.27418 19.2937 9.03967C19.0591 8.80517 18.7789 8.62143 18.4703 8.49992C18.1617 8.3784 17.8314 8.3217 17.5 8.33334Z" fill="#9EC4BD"/>
<path d="M11.6667 12.5C11.1722 12.5 10.6889 12.6466 10.2777 12.9214C9.86662 13.1961 9.54619 13.5865 9.35697 14.0433C9.16775 14.5001 9.11824 15.0028 9.2147 15.4878C9.31117 15.9727 9.54927 16.4182 9.8989 16.7678C10.2485 17.1174 10.694 17.3555 11.1789 17.452C11.6639 17.5485 12.1666 17.4989 12.6234 17.3097C13.0802 17.1205 13.4706 16.8001 13.7453 16.3889C14.02 15.9778 14.1667 15.4945 14.1667 15C14.1783 14.6686 14.1216 14.3383 14.0001 14.0297C13.8786 13.7211 13.6948 13.4409 13.4603 13.2064C13.2258 12.9719 12.9456 12.7881 12.637 12.6666C12.3284 12.5451 11.9981 12.4884 11.6667 12.5Z" fill="#9EC4BD"/>
<path d="M24.1667 7.50002C23.6722 7.50002 23.1889 7.64665 22.7777 7.92135C22.3666 8.19605 22.0462 8.5865 21.857 9.04332C21.6677 9.50013 21.6182 10.0028 21.7147 10.4878C21.8112 10.9727 22.0493 11.4182 22.3989 11.7678C22.7485 12.1174 23.194 12.3555 23.6789 12.452C24.1639 12.5485 24.6666 12.4989 25.1234 12.3097C25.5802 12.1205 25.9706 11.8001 26.2453 11.389C26.52 10.9778 26.6667 10.4945 26.6667 10C26.6783 9.66858 26.6216 9.33829 26.5001 9.02971C26.3786 8.72113 26.1948 8.44087 25.9603 8.20636C25.7258 7.97185 25.4456 7.78812 25.137 7.6666C24.8284 7.54509 24.4981 7.48838 24.1667 7.50002Z" fill="#9EC4BD"/>
<path d="M30 11.6667C29.5055 11.6667 29.0222 11.8133 28.6111 12.088C28.2 12.3627 27.8795 12.7532 27.6903 13.21C27.5011 13.6668 27.4516 14.1695 27.548 14.6544C27.6445 15.1394 27.8826 15.5848 28.2322 15.9345C28.5819 16.2841 29.0273 16.5222 29.5123 16.6187C29.9972 16.7151 30.4999 16.6656 30.9567 16.4764C31.4135 16.2872 31.804 15.9668 32.0787 15.5556C32.3534 15.1445 32.5 14.6612 32.5 14.1667C32.5116 13.8353 32.4549 13.505 32.3334 13.1964C32.2119 12.8878 32.0282 12.6076 31.7937 12.373C31.5592 12.1385 31.2789 11.9548 30.9703 11.8333C30.6617 11.7118 30.3314 11.6551 30 11.6667Z" fill="#9EC4BD"/>
</g>
<defs>
<clipPath id="clip0_168_116">
<rect width="40" height="40" fill="white"/>
</clipPath>
</defs>
</svg>
