<svg width="32" height="32" viewBox="0 0 32 32" fill="none" xmlns="http://www.w3.org/2000/svg">
<path d="M16 29.3334C16.7364 29.3334 17.3333 28.7364 17.3333 28C17.3333 27.2636 16.7364 26.6667 16 26.6667V29.3334ZM16.5937 5.34957C17.3291 5.38982 17.9577 4.82641 17.998 4.09113C18.0383 3.35585 17.4748 2.72715 16.7396 2.68689L16.5937 5.34957ZM12 20L10.6801 19.8115C10.6188 20.2403 10.7696 20.672 11.0845 20.9694C11.3994 21.2668 11.8392 21.3927 12.2637 21.307L12 20ZM22.2761 5.72387C21.7555 5.20318 20.9112 5.20318 20.3905 5.72387C19.8699 6.24458 19.8699 7.08879 20.3905 7.6095L22.2761 5.72387ZM24.1617 11.3807C24.6824 11.9014 25.5267 11.9014 26.0473 11.3807C26.5681 10.86 26.5681 10.0158 26.0473 9.49511L24.1617 11.3807ZM21.3333 21.3334C20.5969 21.3334 20 21.9303 20 22.6667C20 23.4031 20.5969 24 21.3333 24V21.3334ZM29.1733 14.4015C29.0268 13.6798 28.3231 13.2135 27.6013 13.36C26.8797 13.5066 26.4135 14.2103 26.56 14.9319L29.1733 14.4015ZM16 26.6667C10.109 26.6667 5.33334 21.8911 5.33334 16H2.66667C2.66667 23.3638 8.6362 29.3334 16 29.3334V26.6667ZM5.33334 16C5.33334 10.109 10.109 5.33335 16 5.33335V2.66669C8.6362 2.66669 2.66667 8.63622 2.66667 16H5.33334ZM16 5.33335C16.1993 5.33335 16.3973 5.33881 16.5937 5.34957L16.7396 2.68689C16.4947 2.67347 16.248 2.66669 16 2.66669V5.33335ZM16.6264 13.2592L24.1575 5.72819L22.2719 3.84257L14.7408 11.3736L16.6264 13.2592ZM26.0431 7.61381L18.2271 15.4298L20.1127 17.3154L27.9287 9.49942L26.0431 7.61381ZM13.3199 20.1886L13.3832 19.7458L10.7433 19.3686L10.6801 19.8115L13.3199 20.1886ZM12.3869 18.5618L11.7363 18.6931L12.2637 21.307L12.9143 21.1758L12.3869 18.5618ZM18.2271 15.4298C17.1792 16.4776 16.7648 16.8854 16.3049 17.2064L17.8316 19.393C18.5285 18.9063 19.1296 18.2986 20.1127 17.3154L18.2271 15.4298ZM12.9143 21.1758C14.2772 20.9007 15.1161 20.7363 15.9069 20.425L14.9303 17.9436C14.4085 18.1491 13.8395 18.2687 12.3869 18.5618L12.9143 21.1758ZM16.3049 17.2064C15.8772 17.5051 15.4157 17.7526 14.9303 17.9436L15.9069 20.425C16.5867 20.1575 17.2327 19.8111 17.8316 19.393L16.3049 17.2064ZM14.7408 11.3736C13.6573 12.4571 12.9871 13.1192 12.4659 13.8938L14.6783 15.3826C15.022 14.8718 15.4712 14.4144 16.6264 13.2592L14.7408 11.3736ZM13.3832 19.7458C13.6143 18.1284 13.7105 17.4947 13.9129 16.9131L11.3945 16.0366C11.0876 16.9182 10.9601 17.8516 10.7433 19.3686L13.3832 19.7458ZM12.4659 13.8938C12.0182 14.559 11.6581 15.2792 11.3945 16.0366L13.9129 16.9131C14.1012 16.3722 14.3584 15.8578 14.6783 15.3826L12.4659 13.8938ZM26.0431 5.72819C26.5637 6.24889 26.5637 7.0931 26.0431 7.61381L27.9287 9.49942C29.4908 7.93733 29.4908 5.40466 27.9287 3.84257L26.0431 5.72819ZM27.9287 3.84257C26.3665 2.28047 23.8339 2.28047 22.2719 3.84257L24.1575 5.72819C24.6781 5.20749 25.5224 5.20749 26.0431 5.72819L27.9287 3.84257ZM20.3905 7.6095L24.1617 11.3807L26.0473 9.49511L22.2761 5.72387L20.3905 7.6095ZM26.6667 16C26.6667 18.9455 24.2788 21.3334 21.3333 21.3334V24C25.7516 24 29.3333 20.4183 29.3333 16H26.6667ZM26.56 14.9319C26.6297 15.2759 26.6667 15.633 26.6667 16H29.3333C29.3333 15.4538 29.2784 14.9191 29.1733 14.4015L26.56 14.9319Z" fill="#9EC5BD"/>
</svg>
