<svg width="46" height="46" viewBox="0 0 46 46" fill="none" xmlns="http://www.w3.org/2000/svg">
<path fill-rule="evenodd" clip-rule="evenodd" d="M23 16.7846C23.527 16.797 24.0512 16.706 24.5428 16.5167C25.0344 16.3274 25.4837 16.0436 25.865 15.6815C26.2464 15.3193 26.5523 14.886 26.7652 14.4062C26.9782 13.9264 27.0941 13.4096 27.1063 12.8852C27.0768 11.8294 26.6282 10.8283 25.8586 10.101C25.089 9.37363 24.0611 8.97935 23 9.00443C22.4669 8.97942 21.934 9.0605 21.4328 9.24294C20.9315 9.42537 20.4719 9.70548 20.0807 10.0669C19.6896 10.4283 19.3749 10.8637 19.155 11.3476C18.9351 11.8315 18.8144 12.3543 18.8 12.8852C18.7984 13.4699 18.94 14.0463 19.2125 14.5644L14.1875 19.5646C13.5562 19.1969 12.8377 19.0036 12.1063 19.0048C11.5715 18.9924 11.0396 19.0865 10.5419 19.2816C10.0442 19.4767 9.59077 19.7688 9.20818 20.1408C8.8256 20.5128 8.52163 20.9572 8.31415 21.4477C8.10666 21.9383 7.99985 22.4653 8 22.9976C8.06748 24.0269 8.53269 24.9903 9.29816 25.6859C10.0636 26.3815 11.0699 26.7553 12.1063 26.729C12.757 26.7394 13.4005 26.5922 13.9813 26.2999L19.175 31.4867C18.9556 31.974 18.8407 32.5014 18.8375 33.0353C18.8421 33.5693 18.9544 34.0969 19.1676 34.5869C19.3808 35.077 19.6906 35.5195 20.0787 35.8883C20.4668 36.2571 20.9253 36.5447 21.4271 36.734C21.9289 36.9234 22.4637 37.0107 23 36.9907C23.5362 37.0276 24.0742 36.9545 24.5807 36.7757C25.0873 36.597 25.5514 36.3164 25.9444 35.9516C26.3373 35.5868 26.6507 35.1454 26.8649 34.6549C27.0791 34.1644 27.1897 33.6354 27.1897 33.1006C27.1897 32.5658 27.0791 32.0367 26.8649 31.5463C26.6507 31.0558 26.3373 30.6144 25.9444 30.2496C25.5514 29.8847 25.0873 29.6042 24.5807 29.4254C24.0742 29.2467 23.5362 29.1735 23 29.2105C22.2195 29.2081 21.4536 29.4212 20.7875 29.8262L15.6688 24.8633C15.7812 24.6801 15.8754 24.4863 15.95 24.2849H30.05C30.3761 25.0248 30.9153 25.6519 31.5994 26.0869C32.2836 26.522 33.082 26.7454 33.8938 26.729C34.9301 26.7553 35.9364 26.3815 36.7018 25.6859C37.4673 24.9903 37.9325 24.0269 38 22.9976C37.9453 22.0358 37.5523 21.1237 36.8899 20.4212C36.2276 19.7186 35.3379 19.2703 34.3768 19.1546C33.4157 19.039 32.4443 19.2634 31.6327 19.7886C30.8212 20.3138 30.2211 21.1063 29.9375 22.0274H16.0625C16.003 21.7817 15.9149 21.5437 15.8 21.3184L20.8063 16.2435C21.4771 16.6122 22.2337 16.7988 23 16.7846ZM23 14.4711C23.2207 14.4836 23.4418 14.4524 23.6503 14.3793C23.8588 14.3061 24.0506 14.1925 24.2146 14.0449C24.3785 13.8974 24.5114 13.7189 24.6055 13.5198C24.6996 13.3207 24.7529 13.105 24.7625 12.8852C24.7505 12.667 24.6954 12.4533 24.6003 12.2564C24.5052 12.0595 24.3719 11.8831 24.2082 11.7375C24.0444 11.5919 23.8534 11.4799 23.6461 11.4079C23.4388 11.3359 23.2192 11.3054 23 11.318C22.7719 11.2894 22.5403 11.3081 22.3198 11.3728C22.0992 11.4375 21.8945 11.5469 21.7185 11.694C21.5424 11.8412 21.3988 12.023 21.2967 12.2279C21.1946 12.4329 21.1361 12.6567 21.125 12.8852C21.1336 13.1153 21.1902 13.3411 21.2912 13.5483C21.3923 13.7555 21.5355 13.9395 21.7118 14.0886C21.8882 14.2378 22.0937 14.3488 22.3155 14.4146C22.5373 14.4805 22.7704 14.4997 23 14.4711ZM12.1063 24.4902C12.5359 24.5118 12.9576 24.3693 13.2852 24.0919C13.6128 23.8145 13.8215 23.423 13.8688 22.9976C13.8398 22.5587 13.6389 22.1486 13.3093 21.8556C12.9797 21.5625 12.5478 21.4098 12.1063 21.4303C11.6616 21.4048 11.2248 21.5552 10.8911 21.8488C10.5575 22.1423 10.354 22.5553 10.325 22.9976C10.3767 23.4246 10.5893 23.8162 10.92 24.0932C11.2506 24.3703 11.6746 24.5121 12.1063 24.4902ZM35.675 22.9976C35.5475 23.3642 35.3083 23.6821 34.9907 23.9071C34.6732 24.1321 34.293 24.2531 33.9031 24.2531C33.5133 24.2531 33.1331 24.1321 32.8155 23.9071C32.4979 23.6821 32.2588 23.3642 32.1313 22.9976C32.2588 22.6309 32.4979 22.313 32.8155 22.088C33.1331 21.863 33.5133 21.742 33.9031 21.742C34.293 21.742 34.6732 21.863 34.9907 22.088C35.3083 22.313 35.5475 22.6309 35.675 22.9976ZM24.6688 33.1099C24.6568 33.3281 24.6017 33.5418 24.5065 33.7387C24.4114 33.9356 24.2782 34.112 24.1144 34.2576C23.9507 34.4032 23.7597 34.5152 23.5524 34.5872C23.345 34.6592 23.1255 34.6897 22.9062 34.6771C22.6837 34.7013 22.4586 34.6785 22.2455 34.6102C22.0324 34.542 21.8361 34.4299 21.6695 34.2811C21.5028 34.1324 21.3695 33.9504 21.2783 33.747C21.187 33.5436 21.1399 33.3233 21.1399 33.1006C21.1399 32.8778 21.187 32.6576 21.2783 32.4542C21.3695 32.2508 21.5028 32.0688 21.6695 31.92C21.8361 31.7713 22.0324 31.6592 22.2455 31.5909C22.4586 31.5227 22.6837 31.4999 22.9062 31.524C23.127 31.5115 23.348 31.5427 23.5565 31.6158C23.765 31.689 23.9568 31.8026 24.1208 31.9502C24.2848 32.0977 24.4177 32.2762 24.5117 32.4753C24.6058 32.6744 24.6592 32.8901 24.6688 33.1099Z" fill="#9EC5BD"/>
</svg>
