<svg width="34" height="34" viewBox="0 0 34 34" fill="none" xmlns="http://www.w3.org/2000/svg">
<g id="back-square-svgrepo-com 1">
<path id="Vector" d="M11.0642 31.1667L22.9359 31.1667C28.0926 31.1667 31.1667 28.0925 31.1667 22.9359L31.1667 11.0784C31.1668 5.90752 28.0926 2.83335 22.9359 2.83335L11.0784 2.83335C5.92175 2.83335 2.84758 5.90752 2.84758 11.0642L2.84758 22.9359C2.83341 28.0925 5.90758 31.1667 11.0642 31.1667ZM14.2801 11.1492L21.2501 11.1492C21.8309 11.1492 22.3126 11.6309 22.3126 12.2117C22.3126 12.7925 21.8309 13.2742 21.2501 13.2742L14.2801 13.2742C12.4667 13.2742 10.9792 14.7475 10.9792 16.575C10.9792 18.4025 12.4526 19.8759 14.2801 19.8759L21.4626 19.8759L21.0942 19.5075C20.6834 19.0825 20.6834 18.4167 21.1084 17.9917C21.3209 17.7792 21.5901 17.68 21.8592 17.68C22.1284 17.68 22.3976 17.7792 22.6101 17.9917L24.8342 20.23C25.2451 20.6409 25.2451 21.3209 24.8342 21.7317L22.6101 23.9559C22.1992 24.3667 21.5192 24.3667 21.1084 23.9559C20.6976 23.545 20.6976 22.865 21.1084 22.4542L21.5759 21.9867L14.2801 21.9867C11.2909 21.9867 8.85425 19.55 8.85425 16.5609C8.85425 13.5717 11.2909 11.1492 14.2801 11.1492Z" fill="#CE0000"/>
</g>
</svg>
