<svg width="20" height="20" viewBox="0 0 20 20" fill="none" xmlns="http://www.w3.org/2000/svg">
<g id="clipboard-svgrepo-com 3" clip-path="url(#clip0_25_1699)">
<g id="&#233;&#161;&#181;&#233;&#157;&#162;-1">
<g id="File">
<g id="clipboard_fill">
<path id="&#229;&#189;&#162;&#231;&#138;&#182;" d="M5.83337 2.50002V3.33335C5.83337 4.25383 6.57957 5.00002 7.50004 5.00002H12.5C13.4205 5.00002 14.1667 4.25383 14.1667 3.33335V2.50002H15C15.9205 2.50002 16.6667 3.24621 16.6667 4.16669V13.3334C16.6667 16.0948 14.4281 18.3334 11.6667 18.3334H5.00004C4.07957 18.3334 3.33337 17.5872 3.33337 16.6667V4.16669C3.33337 3.24621 4.07957 2.50002 5.00004 2.50002H5.83337ZM10 11.6667H7.50004C7.03981 11.6667 6.66671 12.0398 6.66671 12.5C6.66671 12.9603 7.03981 13.3334 7.50004 13.3334H10C10.4603 13.3334 10.8334 12.9603 10.8334 12.5C10.8334 12.0398 10.4603 11.6667 10 11.6667ZM12.5 8.33335H7.50004C7.03981 8.33335 6.66671 8.70644 6.66671 9.16669C6.66671 9.59406 6.98841 9.94628 7.40286 9.99441L7.50004 10H12.5C12.9603 10 13.3334 9.62694 13.3334 9.16669C13.3334 8.70644 12.9603 8.33335 12.5 8.33335ZM11.6667 1.66669C12.127 1.66669 12.5 2.03979 12.5 2.50002C12.5 2.92738 12.1784 3.27961 11.7639 3.32775L11.6667 3.33335H8.33337C7.87314 3.33335 7.50004 2.96025 7.50004 2.50002C7.50004 2.07266 7.82174 1.72043 8.23619 1.67229L8.33337 1.66669H11.6667Z" fill="#C0EFA2"/>
</g>
</g>
</g>
</g>
<defs>
<clipPath id="clip0_25_1699">
<rect width="20" height="20" fill="white"/>
</clipPath>
</defs>
</svg>
