<svg width="14" height="14" viewBox="0 0 14 14" fill="none" xmlns="http://www.w3.org/2000/svg">
<g id="info-circle-svgrepo-com (1) 1" clip-path="url(#clip0_25_1615)">
<path id="Vector" d="M6.99999 12.4444C10.0069 12.4444 12.4444 10.0069 12.4444 6.99999C12.4444 3.9931 10.0069 1.55554 6.99999 1.55554C3.9931 1.55554 1.55554 3.9931 1.55554 6.99999C1.55554 10.0069 3.9931 12.4444 6.99999 12.4444Z" stroke="white" stroke-width="1.5"/>
<path id="Vector_2" d="M7 10L7 7" stroke="white" stroke-width="1.5" stroke-linecap="round"/>
<path id="Vector_3" d="M6.99995 3.8889C7.4295 3.8889 7.77772 4.23713 7.77772 4.66668C7.77772 5.09624 7.4295 5.44446 6.99995 5.44446C6.57039 5.44446 6.22217 5.09624 6.22217 4.66668C6.22217 4.23713 6.57039 3.8889 6.99995 3.8889Z" fill="white"/>
</g>
<defs>
<clipPath id="clip0_25_1615">
<rect width="14" height="14" fill="white"/>
</clipPath>
</defs>
</svg>
