<svg width="20" height="20" viewBox="0 0 20 20" fill="none" xmlns="http://www.w3.org/2000/svg">
<g id="page-fit-svgrepo-com 1">
<path id="Vector" d="M15.2083 3.33331C16.9342 3.33331 18.3333 4.73242 18.3333 6.45831V13.5416C18.3333 15.2676 16.9342 16.6666 15.2083 16.6666H4.79163C3.06573 16.6666 1.66663 15.2676 1.66663 13.5416V6.45831C1.66663 4.73242 3.06573 3.33331 4.79163 3.33331H15.2083ZM15.2083 10.8333C14.8919 10.8333 14.6304 11.0685 14.589 11.3735L14.5833 11.4583V12.5C14.5833 12.7045 14.4359 12.8746 14.2415 12.9099L14.1666 12.9166H13.125C12.7798 12.9166 12.5 13.1965 12.5 13.5416C12.5 13.8581 12.7351 14.1196 13.0401 14.161L13.125 14.1666H14.1666C15.0453 14.1666 15.7651 13.4867 15.8287 12.6244L15.8333 12.5V11.4583C15.8333 11.1131 15.5535 10.8333 15.2083 10.8333ZM4.79163 10.8333C4.47521 10.8333 4.21372 11.0685 4.17233 11.3735L4.16663 11.4583V12.5C4.16663 13.3786 4.84653 14.0985 5.70891 14.1621L5.83329 14.1666H6.87496C7.22013 14.1666 7.49996 13.8868 7.49996 13.5416C7.49996 13.2252 7.26483 12.9637 6.95977 12.9223L6.87496 12.9166H5.83329C5.62874 12.9166 5.45862 12.7692 5.42334 12.5749L5.41663 12.5V11.4583C5.41663 11.1131 5.1368 10.8333 4.79163 10.8333ZM6.87496 5.83331H5.83329L5.70891 5.83789C4.88964 5.89833 4.23508 6.551 4.17166 7.36944L4.16663 7.49998V8.54165L4.17233 8.62648C4.21372 8.93148 4.47521 9.16665 4.79163 9.16665C5.10804 9.16665 5.36953 8.93148 5.41092 8.62648L5.41663 8.54165V7.49998L5.42334 7.42508C5.45421 7.255 5.58832 7.1209 5.75839 7.09003L5.83329 7.08331H6.87496L6.95977 7.0776C7.26483 7.03622 7.49996 6.77473 7.49996 6.45831C7.49996 6.1419 7.26483 5.8804 6.95977 5.83902L6.87496 5.83331ZM14.1666 5.83331H13.125C12.7798 5.83331 12.5 6.11314 12.5 6.45831C12.5 6.77473 12.7351 7.03622 13.0401 7.0776L13.125 7.08331H14.1666C14.3711 7.08331 14.5413 7.23071 14.5765 7.42508L14.5833 7.49998V8.54165C14.5833 8.88681 14.8631 9.16665 15.2083 9.16665C15.5247 9.16665 15.7862 8.93148 15.8276 8.62648L15.8333 8.54165V7.49998C15.8333 6.62135 15.1534 5.9015 14.291 5.83789L14.1666 5.83331Z" fill="#C0EFA2"/>
</g>
</svg>
