<svg width="20" height="20" viewBox="0 0 20 20" fill="none" xmlns="http://www.w3.org/2000/svg">
<g id="sns-person-2-svgrepo-com 1">
<g id="Group">
<path id="Vector" d="M13.7498 7.98168C15.9539 7.98168 17.7408 6.19473 17.7408 3.99063C17.7408 1.78695 15.9539 0 13.7498 0C11.5461 0 9.75916 1.78695 9.75916 3.99063C9.75916 6.19473 11.5461 7.98168 13.7498 7.98168Z" fill="#C0EFA2"/>
<path id="Vector_2" d="M4.95362 3.82367C3.31054 3.82367 1.97827 5.1559 1.97827 6.79898C1.97827 8.44246 3.31054 9.77472 4.95362 9.77472C6.59671 9.77472 7.92898 8.44246 7.92898 6.79898C7.92898 5.1559 6.59671 3.82367 4.95362 3.82367Z" fill="#C0EFA2"/>
<path id="Vector_3" d="M1.02063 13.0579V15.303C1.02063 17.1988 2.55743 18.7356 4.45333 18.7356H7.25938V12.254L7.28672 12.126C7.34254 11.866 7.43782 11.5829 7.57141 11.2899C6.93829 10.8147 6.06379 10.4586 4.91981 10.4586C2.45723 10.4587 1.22598 12.1007 1.02063 13.0579Z" fill="#C0EFA2"/>
<path id="Vector_4" d="M13.7498 8.89911C10.4473 8.89911 8.79579 11.1009 8.52063 12.3853V18.1276C8.52063 19.1615 9.35911 20 10.393 20H17.107C18.1409 20 18.9793 19.1615 18.9793 18.1276V12.3853C18.7041 11.1009 17.0527 8.89911 13.7498 8.89911Z" fill="#C0EFA2"/>
</g>
</g>
</svg>
