<svg width="20" height="20" viewBox="0 0 20 20" fill="none" xmlns="http://www.w3.org/2000/svg">
<g id="target-svgrepo-com 1" clip-path="url(#clip0_25_1705)">
<path id="Vector" d="M10 0C7.68906 0 5.56875 0.790938 3.87437 2.10688L2.1825 0.415C1.69438 -0.073125 0.869063 -0.10875 0.380937 0.380937C-0.107188 0.869063 -0.073125 1.69438 0.415 2.18281L2.10688 3.87469C0.790938 5.56875 0 7.68906 0 10C0 15.5225 4.4775 20 10 20C15.5225 20 20 15.5225 20 10C20 4.4775 15.5225 0 10 0ZM10 15C7.23875 15 5 12.7613 5 10C5 9.07469 5.26844 8.21781 5.70687 7.47563L7.59281 9.36031C7.53781 9.56531 7.5 9.77781 7.5 10C7.5 11.3806 8.61937 12.5 10 12.5C11.3806 12.5 12.5 11.3806 12.5 10C12.5 8.61937 11.3806 7.5 10 7.5C9.77781 7.5 9.56531 7.53906 9.36031 7.59281L7.47437 5.70813C8.21781 5.26844 9.07469 5 10 5C12.7613 5 15 7.23875 15 10C15 12.7613 12.7613 15 10 15Z" fill="#C0EFA2"/>
</g>
<defs>
<clipPath id="clip0_25_1705">
<rect width="20" height="20" fill="white"/>
</clipPath>
</defs>
</svg>
