<svg width="20" height="20" viewBox="0 0 20 20" fill="none" xmlns="http://www.w3.org/2000/svg">
<g id="team-svgrepo-com (1) 1" clip-path="url(#clip0_25_1691)">
<g id="Group">
<path id="Vector" d="M10.0193 3.76695C11.0596 3.76695 11.9026 2.92332 11.9026 1.88395C11.9026 0.842969 11.0596 0 10.0193 0C8.97828 0 8.13562 0.842969 8.13562 1.88395C8.13566 2.92332 8.97832 3.76695 10.0193 3.76695Z" fill="#C0EFA2"/>
<path id="Vector_2" d="M11.6511 4.65936H9.99988H8.34867C7.43609 4.65936 6.44324 5.65225 6.44324 6.56514V12.8955C6.44324 13.352 6.81289 13.7219 7.26933 13.7219C7.49367 13.7219 7.26933 13.7219 7.84574 13.7219L8.16011 19.1206C8.16011 19.6063 8.55378 20 9.03953 20C9.24437 20 9.62246 20 9.99988 20C10.3777 20 10.7557 20 10.9605 20C11.4462 20 11.84 19.6064 11.84 19.1206L12.154 13.7219C12.7307 13.7219 12.5061 13.7219 12.7307 13.7219C13.1868 13.7219 13.5568 13.352 13.5568 12.8955V6.56514C13.5568 5.65225 12.5639 4.65936 11.6511 4.65936Z" fill="#C0EFA2"/>
<path id="Vector_3" d="M4.06803 5.82356C4.9767 5.82356 5.71275 5.08723 5.71275 4.17887C5.71275 3.2702 4.9767 2.53387 4.06803 2.53387C3.15904 2.53387 2.42334 3.27024 2.42334 4.17887C2.42334 5.08719 3.15904 5.82356 4.06803 5.82356Z" fill="#C0EFA2"/>
<path id="Vector_4" d="M15.9655 5.82356C16.8745 5.82356 17.6102 5.08723 17.6102 4.17887C17.6102 3.2702 16.8745 2.53387 15.9655 2.53387C15.0572 2.53387 14.3208 3.27024 14.3208 4.17887C14.3208 5.08719 15.0572 5.82356 15.9655 5.82356Z" fill="#C0EFA2"/>
<path id="Vector_5" d="M5.36159 6.60248H4.05112H2.60894C1.81214 6.60248 0.945068 7.47017 0.945068 8.26701V13.7954C0.945068 14.1943 1.26788 14.5171 1.66647 14.5171C1.86249 14.5171 1.66647 14.5171 2.16976 14.5171L2.44413 19.2321C2.44413 19.656 2.78808 20 3.21233 20C3.39112 20 3.72108 20 4.05112 20C4.38077 20 4.71108 20 4.88987 20C5.31413 20 5.65808 19.656 5.65808 19.2321L5.93214 14.5171V14.2495C5.58136 13.9036 5.36159 13.426 5.36159 12.8955V6.60248Z" fill="#C0EFA2"/>
<path id="Vector_6" d="M17.3911 6.60248H15.9486H14.6384V12.8955C14.6384 13.426 14.4186 13.9036 14.0675 14.2495V14.5171L14.3416 19.2321C14.3416 19.656 14.6859 20 15.1101 20C15.289 20 15.6189 20 15.9486 20C16.2789 20 16.6089 20 16.7877 20C17.212 20 17.5556 19.656 17.5556 19.2321L17.8303 14.5171C18.3335 14.5171 18.1375 14.5171 18.3335 14.5171C18.7321 14.5171 19.0549 14.1942 19.0549 13.7954V8.26701C19.0549 7.47017 18.1879 6.60248 17.3911 6.60248Z" fill="#C0EFA2"/>
</g>
</g>
<defs>
<clipPath id="clip0_25_1691">
<rect width="20" height="20" fill="white"/>
</clipPath>
</defs>
</svg>
